<svg xmlns="http://www.w3.org/2000/svg" xmlns:xlink="http://www.w3.org/1999/xlink" width="500" zoomAndPan="magnify" viewBox="0 0 375 374.999991" height="500" preserveAspectRatio="xMidYMid meet" version="1.0"><defs><clipPath id="8130e16ba2"><path d="M 0 163 L 250 163 L 250 375 L 0 375 Z M 0 163 " clip-rule="nonzero"/></clipPath><clipPath id="199a9acdc1"><path d="M -48.699219 227.929688 L 155.199219 91.644531 L 257.722656 245.035156 L 53.824219 381.320312 Z M -48.699219 227.929688 " clip-rule="nonzero"/></clipPath><clipPath id="d762a05e71"><path d="M -48.699219 227.929688 L 155.199219 91.644531 L 257.722656 245.035156 L 53.824219 381.320312 Z M -48.699219 227.929688 " clip-rule="nonzero"/></clipPath><clipPath id="f5b8e14ea7"><path d="M -48.679688 227.914062 L 155.453125 91.476562 L 258.433594 245.546875 L 54.296875 381.988281 Z M -48.679688 227.914062 " clip-rule="nonzero"/></clipPath><clipPath id="87b1d4cf90"><path d="M -48.679688 227.914062 L 155.445312 91.480469 L 258.117188 245.089844 L 53.988281 381.527344 Z M -48.679688 227.914062 " clip-rule="nonzero"/></clipPath><clipPath id="c5286cabd3"><path d="M 103 45 L 369 45 L 369 277 L 103 277 Z M 103 45 " clip-rule="nonzero"/></clipPath><clipPath id="c58899e056"><path d="M 154.523438 17.339844 L 413.875 86.832031 L 361.460938 282.433594 L 102.113281 212.941406 Z M 154.523438 17.339844 " clip-rule="nonzero"/></clipPath><clipPath id="b3a08ecc39"><path d="M 154.523438 17.339844 L 413.875 86.832031 L 361.460938 282.433594 L 102.113281 212.941406 Z M 154.523438 17.339844 " clip-rule="nonzero"/></clipPath><clipPath id="9a7efe0b65"><path d="M 154.542969 17.347656 L 414.136719 86.902344 L 361.636719 282.832031 L 102.042969 213.277344 Z M 154.542969 17.347656 " clip-rule="nonzero"/></clipPath><clipPath id="657450874c"><path d="M 154.542969 17.347656 L 414.128906 86.902344 L 361.785156 282.246094 L 102.203125 212.6875 Z M 154.542969 17.347656 " clip-rule="nonzero"/></clipPath></defs><g clip-path="url(#8130e16ba2)"><g clip-path="url(#199a9acdc1)"><g clip-path="url(#d762a05e71)"><g clip-path="url(#f5b8e14ea7)"><g clip-path="url(#87b1d4cf90)"><path fill="#ffc962" d="M 240.960938 223.445312 C 238.289062 223.566406 235.304688 225.171875 232.910156 225.886719 C 219.074219 230.015625 206.300781 228.019531 201.835938 229.78125 C 198.878906 230.945312 195.660156 229.480469 194.125 229.203125 C 188.804688 228.4375 185.796875 234.578125 183.128906 232.917969 C 177.960938 229.703125 175.746094 228.96875 172.417969 225.46875 C 172.851562 223.5 168.429688 218.625 167.476562 220.3125 C 164.953125 217.78125 163.507812 216.621094 162.628906 215.878906 C 162.652344 214.730469 158.707031 210.492188 157.773438 212.035156 C 156.082031 210.761719 154.363281 209.511719 152.652344 208.269531 C 152.644531 206.769531 147.964844 203.453125 147.621094 204.648438 C 146.5 203.84375 144.933594 202.738281 143.09375 201.441406 C 143.257812 200.269531 139.679688 196.875 138.582031 197.382812 C 138.433594 197.449219 138.28125 197.65625 138.128906 197.96875 C 137.738281 197.699219 137.34375 197.425781 136.945312 197.148438 C 131.886719 191.015625 119.160156 179.96875 116.445312 170.707031 C 110.605469 150.804688 93.523438 179.925781 96.210938 185.195312 C 57.21875 198.019531 43.363281 175.898438 40.339844 173.355469 C 39.769531 172.878906 35.722656 170.5625 33.3125 173.269531 C 29.09375 178.011719 25.515625 188.632812 24.082031 194.535156 C 19.835938 212.035156 11.605469 231.199219 1.664062 243.601562 C -1.488281 247.53125 -0.625 253.875 9.371094 258.601562 C 15.023438 261.277344 20.765625 263.828125 26.742188 265.695312 C 46.621094 271.910156 67.886719 269.722656 88.363281 271.605469 C 118.308594 274.347656 172.84375 293.308594 196.050781 284.582031 C 207.269531 279.28125 242.195312 257.386719 247.007812 248.914062 C 252.105469 239.933594 247.445312 223.152344 240.960938 223.445312 Z M 113.957031 172.5625 C 117.242188 181.03125 117.191406 182.140625 121.101562 186.53125 C 120.347656 186.058594 119.65625 185.632812 119.027344 185.261719 C 107.453125 179.4375 100.859375 183.875 99.371094 184.269531 C 99.609375 182.351562 107.9375 157.066406 113.957031 172.5625 Z M 33.503906 179.738281 C 34.222656 178.347656 36.707031 175.695312 36.902344 175.4375 C 37.152344 176.332031 47.476562 197.011719 75.359375 195.394531 C 89.492188 194.570312 108.558594 186.027344 113.078125 186.210938 C 115.328125 186.300781 118.464844 186.730469 120.332031 187.859375 C 113.515625 187.167969 91.109375 206.464844 55.796875 200.875 C 47.574219 199.574219 37.605469 188.46875 33.503906 179.738281 Z M 29.984375 195.277344 C 67.425781 226.886719 117.441406 200.9375 121.789062 197.183594 C 127.046875 192.648438 136.527344 199.71875 137.382812 200.351562 C 136.761719 203.117188 136.453125 206.972656 137.292969 208.152344 C 138.613281 210 140.214844 210.289062 141.632812 209.707031 C 142.433594 209.378906 142.917969 206.917969 143.089844 204.644531 C 144.324219 205.582031 145.566406 206.515625 146.808594 207.453125 C 146.261719 210.164062 146.035156 213.640625 146.828125 214.746094 C 148.144531 216.59375 149.746094 216.886719 151.164062 216.304688 C 151.890625 216.003906 152.355469 213.949219 152.566406 211.875 C 153.984375 212.984375 155.390625 214.117188 156.773438 215.269531 C 156.246094 217.960938 156.039062 221.355469 156.816406 222.449219 C 158.132812 224.296875 159.734375 224.589844 161.15625 224.007812 C 161.792969 223.742188 162.230469 222.113281 162.46875 220.308594 C 165.105469 222.800781 165.917969 223.796875 166.375 224.242188 C 165.953125 226.78125 165.847656 229.667969 166.554688 230.660156 C 167.871094 232.507812 169.476562 232.800781 170.890625 232.214844 C 171.320312 232.042969 171.65625 231.257812 171.902344 230.222656 C 174.179688 232.449219 176.460938 234.222656 180.617188 236.46875 C 175.84375 243.0625 156.484375 235.875 142.011719 239.519531 C 133.523438 240.597656 125.441406 244.425781 123.023438 247.761719 C 107.582031 240.871094 86.078125 241.714844 74.003906 238.066406 C 55.898438 232.597656 29.460938 221.363281 29.984375 195.277344 Z M 226.527344 259.78125 C 208.621094 271.703125 192.660156 281.9375 182.917969 281.3125 C 153.3125 279.402344 111.769531 267.234375 106.84375 267.003906 C 19.550781 262.914062 -2.039062 254.085938 5.738281 244.210938 C 6.722656 242.957031 7.585938 241.804688 8.34375 240.742188 C 49.144531 266.746094 90.042969 253.511719 133.378906 266.058594 C 96.164062 249.324219 65.660156 256.441406 47.617188 252.035156 C 34.679688 248.867188 18.902344 242.164062 11.796875 234.550781 C 13.003906 232.023438 13.820312 230.152344 13.929688 229.847656 C 45.839844 248.765625 89.628906 242.195312 115.339844 252.769531 C 122.964844 255.90625 150.292969 266.882812 174.941406 270.4375 C 199.589844 273.992188 241.527344 246.984375 245.621094 236.980469 C 243.636719 244.074219 243.25 248.652344 226.527344 259.78125 Z M 209.105469 256.566406 C 167.714844 273.699219 127.785156 250.605469 126.734375 250.058594 C 132.644531 244.5 141.546875 241.191406 150.71875 242.421875 C 150.800781 242.449219 150.894531 242.457031 150.964844 242.507812 C 174.484375 260.085938 203.503906 250.621094 217.839844 240.351562 C 224.105469 235.847656 229.722656 231.234375 229.792969 229.269531 C 232.226562 228.632812 239.027344 224.503906 240.480469 227.261719 C 241.9375 230.023438 232.175781 247.015625 209.105469 256.566406 Z M 194.503906 287.074219 C 192.539062 288.386719 51.597656 377.949219 51.597656 377.949219 L 176.195312 291.859375 Z M 171.492188 291.136719 C 170.039062 292.109375 63.089844 359.371094 63.089844 359.371094 L 164.035156 289.441406 L 171.492188 291.136719 " fill-opacity="1" fill-rule="evenodd"/></g></g></g></g></g><g clip-path="url(#c5286cabd3)"><g clip-path="url(#c58899e056)"><g clip-path="url(#b3a08ecc39)"><g clip-path="url(#9a7efe0b65)"><g clip-path="url(#657450874c)"><path fill="#fa7883" d="M 367.222656 252.507812 C 365.191406 250.390625 361.71875 249.097656 359.402344 247.640625 C 346.019531 239.234375 338.445312 227.277344 333.773438 224.875 C 330.683594 223.285156 329.566406 219.578125 328.6875 218.113281 C 325.476562 213.183594 318.253906 215.136719 317.695312 211.742188 C 316.613281 205.167969 315.617188 202.816406 316.097656 197.554688 C 318.027344 196.488281 318.851562 189.332031 316.777344 189.761719 C 317.035156 185.859375 316.949219 183.832031 316.925781 182.574219 C 317.886719 181.765625 318.53125 175.460938 316.585938 175.804688 C 316.414062 173.492188 316.203125 171.179688 315.988281 168.875 C 317.21875 167.785156 316.574219 161.539062 315.339844 162.121094 C 315.191406 160.617188 314.972656 158.527344 314.710938 156.078125 C 315.796875 155.371094 316.007812 149.976562 314.796875 149.4375 C 314.636719 149.363281 314.355469 149.390625 313.988281 149.488281 C 313.929688 148.972656 313.867188 148.449219 313.808594 147.921875 C 315.203125 139.332031 315.113281 120.886719 320.777344 111.96875 C 332.945312 92.804688 296.652344 99.757812 294.253906 105.769531 C 255.5625 82.933594 263.773438 55.570312 263.683594 51.242188 C 263.664062 50.429688 262.652344 45.429688 258.683594 45.398438 C 251.734375 45.351562 240.414062 50.066406 234.519531 53.148438 C 217.054688 62.28125 195.339844 69.332031 177.960938 70.097656 C 172.453125 70.339844 167.855469 75.628906 171.175781 87.269531 C 173.054688 93.851562 175.097656 100.417969 177.871094 106.683594 C 187.101562 127.527344 204.246094 143.453125 217.476562 161.664062 C 236.824219 188.285156 260.566406 246.851562 284.496094 259.660156 C 296.957031 265.066406 340.175781 278.015625 350.621094 275.859375 C 361.691406 273.578125 372.140625 257.632812 367.222656 252.507812 Z M 317.457031 111.261719 C 312.859375 120.078125 311.90625 120.835938 311.113281 127.222656 C 310.960938 126.261719 310.808594 125.382812 310.664062 124.601562 C 307.105469 110.871094 298.695312 108.644531 297.296875 107.703125 C 299.046875 106.515625 325.867188 95.125 317.457031 111.261719 Z M 253.5 50.222656 C 255.160156 49.8125 259.136719 49.941406 259.488281 49.917969 C 258.933594 50.769531 249.363281 74.1875 270.816406 95.96875 C 281.6875 107.003906 302.476562 116.53125 305.589844 120.386719 C 307.136719 122.300781 309.046875 125.199219 309.46875 127.546875 C 305.117188 121.4375 273.070312 116.921875 252.1875 83.824219 C 247.324219 76.117188 249.273438 59.898438 253.5 50.222656 Z M 238.167969 58.539062 C 239.171875 112.164062 296.617188 134.605469 302.84375 135.476562 C 310.371094 136.527344 311.390625 149.429688 311.488281 150.59375 C 308.765625 152.078125 305.367188 154.605469 305.003906 156.148438 C 304.433594 158.570312 305.351562 160.09375 306.855469 160.84375 C 307.699219 161.261719 310.074219 159.886719 312.070312 158.386719 C 312.191406 160.078125 312.320312 161.773438 312.445312 163.476562 C 309.820312 164.984375 306.796875 167.304688 306.457031 168.753906 C 305.886719 171.171875 306.800781 172.699219 308.300781 173.445312 C 309.074219 173.828125 311.101562 172.730469 312.960938 171.402344 C 313.066406 173.375 313.152344 175.347656 313.203125 177.316406 C 310.605469 178.824219 307.660156 181.101562 307.324219 182.535156 C 306.753906 184.949219 307.667969 186.480469 309.171875 187.226562 C 309.851562 187.5625 311.507812 186.746094 313.167969 185.640625 C 313.015625 189.609375 312.78125 190.996094 312.746094 191.691406 C 310.351562 193.179688 307.898438 195.175781 307.59375 196.472656 C 307.023438 198.890625 307.941406 200.421875 309.441406 201.164062 C 309.890625 201.390625 310.78125 201.105469 311.8125 200.558594 C 311.625 204.039062 311.808594 207.195312 312.957031 212.238281 C 304.089844 213.066406 296.035156 191.945312 282.59375 182.667969 C 275.578125 176.457031 266.597656 172.566406 262.105469 172.984375 C 256.636719 155.304688 240.425781 138.214844 234.714844 125.644531 C 226.152344 106.792969 216.324219 76.929688 238.167969 58.539062 Z M 326.898438 266.847656 C 304.164062 260.707031 284.226562 254.960938 277.710938 246.488281 C 257.921875 220.746094 237.960938 177.773438 234.597656 173.554688 C 174.972656 98.757812 166.660156 74.617188 180.398438 73.890625 C 182.140625 73.796875 183.714844 73.675781 185.136719 73.535156 C 193.171875 125.878906 233.574219 149.988281 254.519531 194.710938 C 241.441406 152.007812 213.570312 132.039062 204.179688 114.007812 C 197.449219 101.074219 191.582031 83.25 192.722656 71.910156 C 195.675781 71.078125 197.800781 70.398438 198.128906 70.269531 C 205.589844 110.183594 242.589844 141.484375 252.441406 170.277344 C 255.359375 178.8125 266.046875 209.226562 280.90625 232.078125 C 295.765625 254.929688 348.253906 269.957031 359.441406 266.105469 C 352.171875 269.59375 348.125 272.574219 326.898438 266.847656 Z M 316.976562 250.1875 C 273.007812 228.484375 263.199219 178.957031 262.894531 177.695312 C 271.734375 178.550781 280.882812 183.488281 286.484375 191.925781 C 286.523438 192.015625 286.582031 192.097656 286.59375 192.191406 C 289.097656 224.230469 317.824219 241.285156 336.621094 245.675781 C 344.851562 247.582031 352.699219 248.875 354.367188 247.519531 C 356.648438 249.058594 364.953125 251.675781 363.730469 254.867188 C 362.511719 258.054688 341.480469 262.285156 316.976562 250.1875 Z M 281.328125 260.179688 C 278.832031 259.511719 103.421875 208.140625 103.421875 208.140625 L 264.179688 248.570312 Z M 261.382812 244.175781 C 259.53125 243.679688 127 204.191406 127 204.191406 L 257.394531 236.8125 L 261.382812 244.175781 " fill-opacity="1" fill-rule="evenodd"/></g></g></g></g></g></svg>